<svg preserveAspectRatio="xMidYMid meet" data-bbox="11.32 11.33 445.96 445.96" viewBox="0 0 470.59 468.62" xmlns="http://www.w3.org/2000/svg" data-type="ugc" role="presentation" aria-hidden="true" aria-label="">
	<g>
		<path fill="#ffffff" stroke="#000000" stroke-miterlimit="10" d="M450.5 17.73v430.5H20V17.73h430.5z">
		</path>
		<path d="M169.98 304.02h-65.59c-3.41 0-3.77-1.44-3.77-6.29V177.16c0-3.41.72-4.67 3.95-4.67h12.94c3.95 0 4.85 1.26 4.85 5.93v105.84c0 2.87 1.26 3.42 4.13 3.42h44.39c3.59 0 3.42.9 3.42 3.59v9.34c-.01 3.23-1.09 3.41-4.32 3.41z">
		</path>
		<path d="M260.21 189.21H231.1c-3.6 0-4.13.53-4.13 3.42V298.1c0 4.67-.54 5.93-4.49 5.93h-12.4c-3.96 0-4.68-.72-4.68-5.93V192.62c0-2.88-.53-3.42-4.13-3.42h-28.74c-3.24 0-3.78-.9-3.78-2.7v-11.14c0-2.52 1.26-2.87 5.03-2.87h84.99c3.6 0 5.21.18 5.21 2.51v11.5c0 1.63-.54 2.71-3.77 2.71z">
		</path>
		<path d="M363.55 304.02h-14.19c-3.42 0-3.24-.9-4.31-4.68l-7.73-25.15h-44.74l-7.54 25.15c-1.08 3.78-1.62 4.68-4.49 4.68H267.6c-2.16 0-2.87-.53-1.26-5.93l36.47-119.85c1.26-4.13 2.52-5.75 6.65-5.75h14.73c4.13 0 5.21 1.61 6.65 5.75l36.47 119.85c1.82 5.75-.34 5.93-3.76 5.93zm-48.51-105.83-17.61 60.02h35.03l-17.42-60.02z">
		</path>
		<path d="M305.72 123.3H162.87c-1.01 0-1.83-1.17-1.83-2.62v-11.32c0-1.45.82-2.62 1.83-2.62h142.85c1.01 0 1.83 1.17 1.83 2.62v11.32c0 1.45-.82 2.62-1.83 2.62z" fill="#fcaf17">
		</path>
		<path d="M305.72 367.34H162.87c-1.01 0-1.83-1.17-1.83-2.62V353.4c0-1.45.82-2.62 1.83-2.62h142.85c1.01 0 1.83 1.17 1.83 2.62v11.32c0 1.45-.82 2.62-1.83 2.62z" fill="#fcaf17">
		</path>
		<path d="M457.28 457.29H11.32V11.33h445.96v445.96zM27.59 441.01H441V27.61H27.59v413.4z">
		</path>
	</g>
</svg>
