<svg xmlns="http://www.w3.org/2000/svg" viewBox="0 0 209.26 209.26">
	<defs>
		<style>
			.cls-1{fill:none;stroke:#42484d;stroke-miterlimit:10;stroke-width:4px;}.cls-2{fill:#fff;}
		</style>
	</defs>
	<g id="Layer_2" data-name="Layer 2">
		<g id="Layer_1-2" data-name="Layer 1">
			<circle cx="104.63" cy="104.63" r="92.25" fill="#42484d" />
			<circle class="cls-1" cx="104.63" cy="104.63" r="102.63" />
			<path class="cls-2" d="M62.29,122.85C82.44,103.12,106.46,90,133.38,82.32c6.63-1.89,8.2-5.22,7.89-11.34-1-18.56-18.41-35.08-39.34-36.38-8.73-.55-17.53-.45-26.29-.14-12.39.44-22.87,10.72-23,23.22-.34,24.58-.1,49.17-.1,75.37C56.47,128.91,59.29,125.79,62.29,122.85Z" />
			<path class="cls-2" d="M154.34,97.22c-2.77-3.18-5.52-4.11-9.45-3.54a208.41,208.41,0,0,0-27.15,5.71c1.29,3.6,2.51,7.22,3.78,10.83.25.72.46,1.31,1.55,1.53,2.25.47,3.79,5.51,2.52,7.46a2.36,2.36,0,0,0-.29,1.79c1.22,3.8,2.56,7.55,3.84,11.33.24.69.72,1.61-.47,1.78-.39.06-1.13-.64-1.31-1.14-2-5.71-4-11.44-6-17.17l-.28.09c-.89-2.87-1.73-5.75-2.67-8.6-.8-2.47-1.67-4.91-2.52-7.37l-.65.2c3.86,11.39,7.59,22.38,11.32,33.37-8.75-7.18-17.86-6.36-27.52-2l-4.31-14c9.15-2.72,16.69-7.19,19.42-17.11-20.67,6.35-39.71,16.36-56.54,31.62-4.86,4.4-5.95,9-4.7,14.77a25.61,25.61,0,0,0,3.36,8.3l29.79-9.2c.3.75.66,1.61,1.05,2.55.19-1.49-.05-3,.59-4A60.36,60.36,0,0,1,93,137.62a3.4,3.4,0,0,1,2.27-1.11,71.12,71.12,0,0,1,7.15.65c.41.05,1.07.58,1.07.91.08,3.48,0,7,0,10.4-4.76.22-4.59-3.28-5.21-6l-2.53,4.65,2-1.67.57.07c0,.95.07,1.9.06,2.86a22.94,22.94,0,0,1-.14,4.84c-.5,2.25-.36,2.89,1.85,3.72l1.52.58c-3.21.35-6.27,1.93-9.56.86a3.72,3.72,0,0,0-2.44.42c-3.23,1.61-6.41,3.33-9.61,5l-5.56,2.92c.9.11,1.81.17,2.73.19,6.63.11,13.26,0,19.89,0,6,0,12,0,18,0a53.22,53.22,0,0,0,32.22-11C167,141.08,169.92,115.1,154.34,97.22ZM89.88,127.47c-1.2-3.16-.57-7.41,4.26-9.63q2.13,6.91,4.26,13.8A7.19,7.19,0,0,1,89.88,127.47Zm8.77,8.41c.76-1.53,1-3.39,2.09-4a19.54,19.54,0,0,1,11.06-2.76c-.79,2.55-1.5,5-2.31,7.31a1.29,1.29,0,0,1-1,.64C105.31,136.72,102.18,136.32,98.65,135.88Zm8.3,20.43a1.76,1.76,0,0,1-2.45,1.43c-1.25-.39-2.48-.84-3.69-1.33-2-.8-2.34-2.08-1-4.09,1.95.52,3.94,1.05,5.92,1.6A1.69,1.69,0,0,1,107,156.31Zm2.11-4.83c-.37,1.93-.89,2.44-2.54,2.06-2-.45-3.91-1-5.89-1.42a1.58,1.58,0,0,1-1.4-1.84c0-.6.09-1.19.14-1.88,2.76.31,5.34.66,7.94.87C108.8,149.39,109.34,150,109.06,151.48Zm1.25-4c-.22.53-.87,1.21-1.34,1.22a44.12,44.12,0,0,1-4.67-.35c0-1.49,0-2.78.06-4.35,1.77.09,3.48.11,5.16.3.36.05.84.68.92,1.11A3.82,3.82,0,0,1,110.31,147.47Zm1.38-5.73c0,.06,0,.13,0,.16-.47.47-.92,1.31-1.42,1.34-1.93.13-3.88,0-6,0-.06-1.92-.11-3.73-.16-5.73,1.71.24,3.26.44,4.8.67C112,138.61,112,138.62,111.69,141.74Zm20.68-24c-.06.35-.75.57-1.15.85-.21-.43-.7-.95-.59-1.27a5.78,5.78,0,0,0-1.75-6.53c-.28-.27-.12-1-.17-1.52.49.07,1.17,0,1.42.23,1,1.07,1.8,2.27,2.84,3.63C132.78,114.72,132.67,116.27,132.37,117.78Zm5,2.25c-.18.46-.88.72-1.34,1.07a12.92,12.92,0,0,1-.37-1.7c0-.3.19-.62.28-.94a10.78,10.78,0,0,0-2.5-10.8c-.9-1-2.08-1.76-3-2.73-.34-.34-.36-1-.53-1.49.53,0,1.2-.22,1.58,0a15.16,15.16,0,0,1,6.28,7.81A13.08,13.08,0,0,1,137.34,120Zm5.14,1.66c-.15.45-.86.72-1.31,1.08a5,5,0,0,1-.4-1.67c.09-.92.46-1.8.63-2.71,1-4.9.29-9.53-3-13.42-1.45-1.72-3.43-3-5.13-4.49a2.37,2.37,0,0,1-.66-1.16c0-.18.35-.47.63-.82a12,12,0,0,1,1.34.59A18.07,18.07,0,0,1,143,109.77,19.89,19.89,0,0,1,142.48,121.69Z" />
			<path class="cls-2" d="M103.37,116.49c-1.62.75-3.41,1.13-5.08,1.77a4.91,4.91,0,0,0-1.23,1,5.15,5.15,0,0,0,1.53.39,11.62,11.62,0,0,0,2-.47c6-2.07,10.9-5.48,14.08-11.08.05-.1.15-.19.16-.28,0-.54,0-1.07.07-1.6-.43.28-1,.46-1.26.86A22.14,22.14,0,0,1,103.37,116.49Z" />
		</g>
	</g>
</svg>
