<svg xmlns="http://www.w3.org/2000/svg" width="500" height="200" viewBox="0 0 500 200"><rect width="100%" height="100%" fill="transparent"/><path fill="#F5F5F5" d="M111.465 118.6h7.99V90.09h9.67v-6.7h-27.33v6.7h9.67Zm22.52 0h7.94v-18.09c1.72-1.67 2.97-2.59 4.96-2.59 2.27 0 3.3 1.19 3.3 5.07v15.61h7.94v-16.63c0-6.7-2.49-10.8-8.32-10.8-3.62 0-6.26 1.89-8.26 3.67l.38-4.81v-9.28h-7.94Zm42.82.65c3.19 0 6.75-1.14 9.5-3.03l-2.64-4.8c-1.95 1.19-3.78 1.78-5.78 1.78-3.56 0-6.26-1.78-6.97-5.67h16.04c.16-.65.33-2.11.33-3.51 0-7.29-3.78-12.85-11.4-12.85-6.42 0-12.63 5.34-12.63 14.04 0 8.85 5.88 14.04 13.55 14.04Zm-5.94-16.96c.54-3.4 2.7-5.07 5.18-5.07 3.19 0 4.49 2.1 4.49 5.07Zm33.37 16.31h13.07c7.61 0 13.66-3.19 13.66-10.37 0-4.7-2.75-7.34-6.32-8.26v-.22c2.87-1.08 4.59-4.48 4.59-7.61 0-6.75-5.67-8.75-12.96-8.75h-12.04Zm7.94-21.11v-7.94h3.78c3.73 0 5.51 1.02 5.51 3.78 0 2.54-1.68 4.16-5.56 4.16Zm0 14.95v-9.07h4.48c4.38 0 6.54 1.24 6.54 4.32 0 3.24-2.22 4.75-6.54 4.75Zm24.08 6.16h7.94v-15.55c1.41-3.62 3.89-4.92 5.89-4.92 1.13 0 1.94.17 2.91.44l1.3-6.86c-.76-.33-1.67-.54-3.19-.54-2.75 0-5.67 1.73-7.61 5.34h-.22l-.54-4.69h-6.48Zm26.73.65c3.03 0 5.51-1.41 7.78-3.4h.22l.54 2.75h6.48v-15.34c0-8.2-3.78-12.09-10.64-12.09-4.21 0-8.05 1.46-11.45 3.51l2.86 5.24c2.59-1.52 4.81-2.43 7.08-2.43 2.91 0 4.05 1.51 4.21 3.88-10.59 1.08-15.07 4.16-15.07 9.78 0 4.53 3.08 8.1 7.99 8.1Zm2.7-6.16c-1.89 0-3.07-.81-3.07-2.54 0-2.05 1.83-3.67 7.45-4.42v4.69c-1.41 1.41-2.59 2.27-4.38 2.27Zm19.01 5.51h7.94v-18.09c1.73-1.67 2.97-2.59 4.97-2.59 2.27 0 3.29 1.19 3.29 5.07v15.61h7.94v-16.63c0-6.7-2.48-10.8-8.32-10.8-3.61 0-6.31 1.89-8.58 4.05h-.22l-.54-3.4h-6.48Zm40.45.65c2.59 0 5.24-1.41 7.13-3.3h.21l.54 2.65h6.48V80.75h-7.94v9.12l.33 4.11c-1.84-1.73-3.62-2.81-6.59-2.81-5.67 0-11.12 5.29-11.12 14.04s4.32 14.04 10.96 14.04Zm2.05-6.48c-3.08 0-4.86-2.38-4.86-7.67 0-5.08 2.27-7.45 4.81-7.45 1.45 0 3.02.43 4.42 1.73v10.96c-1.29 1.78-2.64 2.43-4.37 2.43Zm31.32 6.48c3.19 0 6.75-1.14 9.5-3.03l-2.64-4.8c-1.95 1.19-3.78 1.78-5.78 1.78-3.56 0-6.26-1.78-6.97-5.67h16.04c.16-.65.33-2.11.33-3.51 0-7.29-3.78-12.85-11.4-12.85-6.42 0-12.63 5.34-12.63 14.04 0 8.85 5.88 14.04 13.55 14.04Zm-5.94-16.96c.54-3.4 2.7-5.07 5.18-5.07 3.19 0 4.49 2.1 4.49 5.07Zm29.97 16.96c3.67 0 6.16-1.68 8.42-4.38h.17l.59 3.73h6.48V91.82h-7.94v17.71c-1.56 2.1-2.75 2.97-4.75 2.97-2.32 0-3.35-1.24-3.35-5.08v-15.6h-7.94v16.63c0 6.69 2.49 10.8 8.32 10.8Z"/></svg>